<?xml version="1.0" encoding="UTF-8"?>
<svg version="1.1" viewBox="0 0 1605.8 361.88" xmlns="http://www.w3.org/2000/svg">
    <path fill="#cd2d2c" d="m112.66 0-112.66 361.88h1492.8l112.92-361.88z" />
    <path fill="#fff"
        d="m371.97 14.914c-16.268-0.14569-33.142 1.7691-45.994 4.6582-19.367 4.3535-43.942 16.337-61.238 30.871-17.296 14.534-32.073 31.483-43.453 54.373-13.12 26.39-15.528 55.28-13.949 84.59 0.0501 0.92975 0.19053 1.8798 0.26758 2.8164-3.8584 5.0798-7.7131 10.272-11.883 16.184l-14.703 17.062c-15.402 9.1426-30.386 18.847-44.355 30.141-4.3641 3.5314-7.4662 7.4072-8.8672 12.832-1.1246 4.3202-0.71005 5.1266 3.5625 4.4082 5.5958-0.93481 11.148-2.1297 16.725-3.2676 4.8919-0.98619 9.7962-1.9222 14.645-3.125 2.4534-0.62574 4.3224 0.079 6.2129 1.4883l15.197 11.088c1.8962 1.4016 3.1119 2.988 3.2227 5.5176 0.25127 4.989 0.771 9.9558 1.2422 14.924 0.52416 5.6678 0.98891 11.326 1.7129 16.953 0.54834 4.2977 1.4399 4.4649 5.25 2.1387 4.7876-2.9104 7.6009-7.0021 9.7188-12.201 6.7691-16.639 11.726-33.791 16.021-51.18l3.8789-6.1035c0.19972 0.36015 0.40038 0.77934 0.59961 1.1289 9.1847 16.116 22.511 33.504 39.561 49.068 1.7052 1.5567 3.2613 0.16155 5.7461-2.543 2.4194-2.6334 3.4753-3.7647 1.916-5.1953-5.0725-4.6537-23.752-18.62-40.209-47.984-0.68045-1.2141-1.2263-2.346-1.8594-3.5312l2.4473-3.8516c10.821-13.856 18.362-24.808 28.416-39.236 9.0366-12.968 19.744-31.594 26.309-44.473 7.4783-14.672 10.133-26.492 14.648-42.197 0.23422-0.81471 0.49131-1.6503 0.57812-2.5117 0.15312-1.5197 0.27314-3.1414-1.1152-3.9453-1.3884-0.80392-2.6752 9e-3 -3.8086 0.48047-0.79948 0.33232-1.5262 0.82331-2.2383 1.2832-13.728 8.8659-24.039 14.999-35.92 26.402-10.429 10.009-25.396 25.471-35.195 37.873-4.0931 5.1799-7.6358 9.7041-11.23 14.314-8e-3 -0.11003-0.0231-0.22817-0.0312-0.33789-0.82826-11.139 0.52118-37.358 3.1816-48.125 8.7636-35.465 29.484-64.547 60.061-86.293 13.265-9.434 29.953-17.055 46.947-21.52 16.994-4.4645 39.942-5.7253 58.234-3.1113 33.566 4.7965 59.702 18.821 84.588 42.184 2.883 2.7066 4.2175 2.9939 5.3633 0.39648 1.2165-2.7578 2.9213-5.6477 3.7656-7.6426 0.9321-2.2024 0.52381-2.9035-1.8457-4.7441-26.87-21-50.959-35.415-86.225-39.184-5.117-0.54688-10.474-0.82448-15.896-0.87305zm283.17 37.096c-12.24 0.43-24.41 1.3405-36.25 4.7305-37.28 10.68-63.411 33.69-76.801 70.25-9.46 25.83-10.69 52.461-5.1699 79.291 4.27 20.75 13.86 38.93 28.65 54.26 0.44 0.45 0.93953 0.88016 1.2695 1.4102 0.16 0.24 0.22 0.45992 0.25 0.66992 1.94 1.31 3.4995 2.9899 4.6895 4.9199 1.22 0.3 2.3399 0.83047 3.4199 1.7305 7.37 6.13 15.461 11.21 24.221 15.09 20.37 9.03 41.8 12.44 63.99 11.58 13.83-0.54 27.3-2.9702 40.33-7.6602 11.87-4.28 22.549-10.57 31.939-19.01l9.2305-9.3203c7.48-8.8 13.341-18.581 17.811-29.201l-0.0117 0.01c9.04-21.47 11.74-44.089 12.08-67.129 0.03-1.71-0.65898-2.6394-2.459-2.6094-1.15 0.03-2.2895-0.0117-3.4395-0.0117h-94.82c-4.97 0-9.9402-0.0383-14.91 0.0117-3.35 0.03-3.4199 0.10922-3.4199 3.4492-0.02 12.86-0.02 25.71 0 38.57 0 3.51 0.0404 3.5488 3.6504 3.5488 11.34 0.03 22.689-0.0188 34.029 0.0312 2.8 0.01 5.6006 0.18992 8.3906 0.41992 3.29 0.27 3.4597 0.43024 2.9297 3.7402-1.82 11.25-7.1403 20.289-17.07 26.289-8.79 5.32-18.451 8.2398-28.641 8.2598-24.21 0.05-42.57-10.439-54.41-31.709-6.87-12.33-9.0793-25.75-8.7793-39.73 0.35-15.87 4.4496-30.63 12.85-44.1 6.42-10.3 15.351-17.51 27.061-21.15 14.99-4.66 29.689-4.779 44.289 1.791 8.45 3.81 15.141 9.2288 19.471 17.469 1.48 2.81 3.0101 5.5994 4.5801 8.3594 1.6 2.79 2.2309 3.0511 5.2109 1.8711 16.66-6.6 33.319-13.221 49.959-19.871 2.61-1.04 2.6506-1.2997 1.3106-3.9297-2.6-5.09-5.2997-10.139-8.4297-14.939-13.42-20.54-31.431-35.139-55.141-42.279-13.65-4.11-27.619-5.6116-41.859-5.1016zm406.28 6.8906c-5.09-0.05-4.2007 0.32032-4.2207 4.0703-0.02 7.26 0 14.51 0 21.77-0.02 30.41 0.2107 60.83-0.5293 91.24-0.4 16.71 0.5305 33.3 3.7305 49.73 2.46 12.59 6.5601 24.54 14.16 35.08l6.8399 7.709c5.91 5.87 12.639 10.641 20.109 14.361 12.33 6.14 25.351 9.6595 39.051 11.02 13.92 1.38 27.729 0.97007 41.449-1.6699 18.01-3.46 33.959-11.22 47.699-23.4l10.371-10.859c7.35-8.87 12.55-18.85 15-30.1 2.19-10.08 3.4208-20.34 3.4707-30.66l-0.031-0.0215c0.12-28.26 0.041-56.519 0.041-84.779 0-16.43 0.02-32.85 0-49.27-0.01-3.84-0.1909-4.0898-3.7109-4.0898-17.46-0.03-34.919-0.03-52.379 0-3.32 0.01-3.4708 0.22969-3.5508 3.4297v1.1504c0 32.33-0.02 64.67 0.01 97 0 6.36 0.01 12.73 0.3203 19.08 0.57 11.76-0.25 23.42-3 34.84-3.07 12.75-11.04 21.359-23.68 25.109-11.38 3.38-22.691 2.6604-33.531-2.3496-12.01-5.56-19.058-14.819-20.728-28.109-0.58-4.69-0.9101-9.3703-0.9101-14.07-0.05-43.29-0.031-86.572-0.031-129.85 0-1.28-0.01-2.5484-0.059-3.8184-0.06-1.5-0.7811-2.3613-2.3711-2.3613-1.15 0-2.2894-0.0586-3.4394-0.0586-13.76 0-27.531 0.01-41.291 0-2.93 0-5.8591-0.0911-8.7891-0.12109zm-176.66 0.12109c-4.69 0-4.7102-9.3e-4 -6.4102 4.2891-20.83 52.43-41.079 105.08-61.189 157.78-5.03 13.18-9.7103 26.491-15.32 39.441l-3.1797 9.0098c-1.85 5-3.8509 9.9492-5.7109 14.949-0.46 1.26-1.3986 2.4812-0.8086 3.9512 0.71 0.52 1.4902 0.36914 2.2402 0.36914 18.99 0 37.979 0.01 56.969 0 3.09 1e-5 3.1203-0.0304 4.3203-3.1504 2.05-5.34 3.8101-10.789 6.0801-16.039 1.22-2.81 0.45086-1.1902 1.6309-3.6602 0.42-1.2 0.99867-2.3299 1.6387-3.4199-0.06-0.36 0.011-0.79945 0.29102-1.4394 1.53-3.48 3.2093-6.9109 4.7793-10.381 0.6-1.32 1.57-1.9206 3-1.8906 0.76 0.03 1.531 0 2.291 0h72.238c1.01 0 2.0408-0.0297 3.0508 0.0703 1.35 0.13 2.3205 0.72016 2.8105 2.1602 1.1 3.25 2.42 6.4297 3.5 9.6797 0.32 0.96 0.3502 1.5602 0.1602 1.9902 0.53 1.15 1.0299 2.3709 1.6699 3.8809 0.39 0.77 0.6292 1.3998 1.1192 2.5098 2.3 5.25 3.5096 10.88 5.9296 16.09 1.64 3.54 1.4806 3.6191 5.5606 3.6191h39c5.99 0 11.981 0.0405 17.971-0.0195v-0.0195c2.3-0.02 2.5198-0.33047 1.7598-2.4805-1.82-5.15-3.7509-10.261-5.6309-15.391-0.35-0.96-0.6795-1.9184-0.9395-2.8984l-3.1699-8.1113c-0.19-0.47-0.3708-0.93992-0.5508-1.4199-24.43-65.07-48.859-130.15-73.289-195.22-1.58-4.23-1.5903-4.25-5.9903-4.25zm426.93 0c-5.03 0.01-5.0293 0.0392-5.0293 5.1191v166.13c0 9.93 0.011 19.859-0.019 29.789v9.5098c0.05 5.22-0.011 10.44 0.019 15.66 0.02 3.49 0.109 3.5398 3.709 3.5898h122.73c0.76 0 1.531 0.03 2.291 0 2.61-0.1 2.8284-0.26008 2.8984-2.8301 0.13-4.95 0.2313-9.9091 0.2813-14.869v-0.0312l0.02-11.129c-0.03-5.22 2e-4 -10.44-0.01-15.66-0.01-4.95-0.091-5.0293-5.2109-5.0293-20.77 0-41.548 0.01-62.318 0-5.0599 0-4.75 0.63008-4.75-4.6699v-169.18c0-1.01 0.04-2.0288 0-3.0488-0.1299-2.93-0.3708-3.1601-3.3808-3.3301-0.51-0.02-1.0193-0.0195-1.5293-0.0195-16.56 0-33.131-0.01-49.701 0zm-840.95 29.957c-1.43 6.12-4.9801 10.091-11.58 11.971 6.99 1.33 9.81 5.9406 11.75 12.391l0.01-0.01c1.68-6.53 4.4904-10.701 11.65-12.441-6.96-1.89-10.15-6.0802-11.83-11.91zm-46.07 11.84c-0.47537-0.0191-0.95708 0.14253-1.3359 0.49218l-53.67 49.535c-0.75771 0.69931-0.80478 1.8712-0.10546 2.6289l16.482 17.861c0.69931 0.75771 1.8732 0.80477 2.6309 0.10546l53.67-49.533c0.75771-0.69931 0.80478-1.8732 0.10547-2.6309l-16.482-17.861c-0.34966-0.37885-0.81955-0.5786-1.2949-0.59765zm487.06 31.033c1.59 2.64 2.2097 5.6385 3.1797 8.4785l-0.01-0.0195c6.67 19.47 13.229 38.98 19.809 58.48 1.54 4.56 1.5201 4.5801-3.3399 4.5801h-39.379c-0.64 0-1.2702 0.03-1.9102 0-2.81-0.14-3.1693-0.53024-2.2793-3.2402 2.49-7.61 5.0389-15.19 7.6289-22.77 4.8399-14.18 9.7111-28.361 14.621-42.531 0.36-1.02 0.2997-2.3385 1.6797-2.9785zm-549.75 20.615c-0.79494-0.0639-1.6386 0.54083-3.0938 1.8516-0.76096 0.68542-1.5832 1.6663-2.6602 1.1894-2.943-1.3031-4.4731 0.81871-6.2109 2.3711-2.5721 2.2976-4.6518 4.1653-7.0879 6.584-1.6748 1.6628-3.1209 3.1318-2.0117 5.8965 0.47543 1.185 0.29585 1.3782-1.1348 2.916-1.8064 1.9418-1.6004 3.2739-0.18554 4.8144 6.6187 7.2067 13.079 14.251 19.811 21.609 1.4284 1.5614 2.7408 1.8098 4.3496 0.30859 1.3812-1.2888 2.8495-2.4785 4.2695-3.7285l0.47656 0.56054c-1.9419 1.9789-3.6338 4.7074-4.3438 6.8184-0.71346 2.1212-1.5786 5.1791-0.1582 7.4121 0.92011 1.4465 3.3947 2.3439 6.418 1.6777 3.1052-0.68423 4.9174-1.3426 7.6543-2.9609 3.9325-2.3254 6.0746-4.2487 10.975-1.1387 1.88 1.21 3.7087-0.75985 2.3887-2.5898-3.09-4.25-0.0657-7.1801 2.2012-10.232 2.0332-2.7376 3.3695-5.1348 4.0195-8.6348 0.24559-2.4151-0.22489-3.9921-1.3418-5.0723-1.1169-1.0801-3.4311-1.383-6.0469-0.8418-2.6377 0.54572-4.8198 1.3038-8.0156 3.3125l-0.60547-0.66211c1.2084-1.1566 1.9162-1.8081 2.8789-2.8965 1.4916-1.6863 1.8065-2.3899-0.043-4.4941-6.1289-6.9731-13.427-15.078-19.707-21.908-1.255-1.365-2-2.0982-2.7949-2.1621zm-24.65 29.512c-0.47537-0.019-0.95903 0.14254-1.3379 0.49219l-53.67 49.535c-0.75771 0.69931-0.80478 1.8712-0.10547 2.6289l16.484 17.861c0.69931 0.75771 1.8712 0.80478 2.6289 0.10547l53.672-49.533c0.75771-0.69931 0.80478-1.8732 0.10547-2.6309l-16.484-17.861c-0.34965-0.37886-0.81759-0.5786-1.293-0.59766zm74.82 23.176c-0.84112-0.0377-1.6731 0.16882-2.3809 0.60937-0.48987 0.30417-0.64401 0.46427-0.96875 0.97852-0.4825 0.75191-0.65462 1.3657-0.73243 2.6504-0.25931 4.1357-2.0188 7.8629-5.0488 10.682-3.1438 2.9246-6.8928 4.3526-11.375 4.3398-1.5152 2.1e-4 -2.0395 0.18444-2.998 1.0762-0.85296 0.79348-1.1193 1.4038-1.1641 2.6426-0.0361 1.2155 0.23632 1.9804 1.0449 2.8496 0.89173 0.95857 1.5114 1.185 3.3164 1.2031 5.0612 0.0651 10.176-1.5886 14.352-4.6094 0.70164-0.51633 3.3319-2.9163 3.9219-3.6016 0.75359-0.86773 2.1545-2.9145 2.8184-4.123 1.766-3.2491 2.7712-6.7291 2.9277-10.193 0.082-1.834-0.0511-2.2876-0.94336-3.2305-0.52956-0.55295-0.77456-0.73316-1.2695-0.93945-0.48735-0.20013-0.99534-0.31138-1.5-0.33398zm14.203 1.0371c-0.47623-0.0192-0.94934 0.0231-1.334 0.13086-0.47609 0.13981-0.78088 0.31762-1.3066 0.7461-1.0283 0.86566-1.2523 1.4062-1.4004 3.332-0.13769 1.8556-0.54574 4.2521-0.99024 5.9082-0.76924 2.8219-2.2486 6.1514-3.7188 8.3828-0.29868 0.44454-0.63148 0.9662-0.74805 1.1504-0.11656 0.18418-0.66711 0.91092-1.2188 1.6211-1.4397 1.8242-4.2274 4.4157-6.1914 5.7578-5.2072 3.5409-11.092 5.3939-17.271 5.4297-1.971 0.0152-2.5742 0.19683-3.4922 1.0508-0.5849 0.54411-0.72504 0.73526-0.9336 1.293-0.28508 0.71979-0.33944 2.0123-0.13086 2.7578 0.31401 1.0869 1.344 2.1447 2.4297 2.5137 1.1014 0.36951 5.3074 0.18452 8.3965-0.35547 6.0759-1.0758 11.49-3.3846 16.49-7.0664 1.1369-0.83033 4.2045-3.6082 5.1856-4.6875 5.8944-6.4835 9.5677-15.144 9.9648-23.529 0.0855-1.7162-0.0562-2.1457-1.0234-3.1856-0.67258-0.72298-0.81653-0.82948-1.3516-1.0137-0.39939-0.1361-0.87924-0.21715-1.3555-0.23633zm14.367 1.0293c-0.21267-0.0144-0.42909-0.0135-0.64649 4e-3 -0.24846 0.0199-0.49845 0.0614-0.74804 0.125-0.72111 0.18591-0.81802 0.24539-1.541 0.91797-0.69861 0.64988-0.78929 0.7793-0.97461 1.3457-0.11467 0.34913-0.25677 1.2229-0.30664 1.9512-0.45803 5.942-1.9781 11.493-4.6191 16.799-0.80402 1.6117-2.1013 3.8336-2.8965 4.9824-2.4098 3.4692-3.35 4.5433-6.5918 7.5742-2.5102 2.3351-2.9574 2.7182-4.3184 3.666-2.7864 1.9404-4.9423 3.158-7.998 4.5156-5.4817 2.4476-11.771 3.7987-17.801 3.8164-2.0651 0.0118-2.676 0.18542-3.6016 1.0312-0.57678 0.53654-0.68518 0.69746-0.94531 1.3789-0.31228 0.82087-0.36545 1.902-0.13477 2.6875 0.11242 0.36518 0.29917 0.63124 1.002 1.3867 1.0882 1.1698 1.2584 1.2387 3.1406 1.291 5.0979 0.13707 11.271-0.8174 16.586-2.5645 5.8475-1.9241 11.379-4.8879 16.275-8.7305 0.98597-0.78083 5.4424-4.8514 5.4551-4.9844 9.9e-4 -0.0314 0.36205-0.44162 0.81054-0.9043 3.3471-3.5531 6.7627-8.807 9.0352-13.906 2.546-5.7174 4.1575-12.263 4.4004-17.898 0.054-1.2777 0.0187-1.6394-0.21289-2.1816-0.55258-1.3423-1.8805-2.2019-3.3691-2.3027zm-272.9 69.346c-1.3296-0.11648-2.5926 0.71642-4.5976 2.6914-9.65 9.49-18.591 19.601-26.611 30.461-7.6 10.27-14.461 21.061-15.91 34.471 4.7 0.2 8.7082-2.4591 11.658-4.5391 7.16-5.07 12.772-9.9628 18.822-16.303 9.27-9.74 16.05-21.18 23.15-32.42v0.0215c4.15-6.59 4.7624-6.345-1.5176-11.375-2.27-1.825-3.6645-2.8913-4.9942-3.0078z" />
</svg>