<?xml version="1.0" encoding="UTF-8"?>

<svg viewBox="0 0 128 128" xmlns="http://www.w3.org/2000/svg">

  <circle style="fill:#cccccc;stroke:#000000;stroke-width:4.59861;stroke-dasharray:none;stroke-opacity:1" cx="64"
    cy="64" r="60" />
  <path
    d="m 25.114102,27.210406 c 0.15642,7.038855 9.572809,17.706691 9.572809,17.706691 l 8.040257,-8.0713 c 0,0 -8.728467,-7.946063 -17.613066,-9.635391 z m 18.613904,10.385897 -8.133883,8.384218 37.665897,37.791064 8.259046,-8.133889 z m 24.901815,23.149973 13.514583,13.577167 7.383386,-5.192949 c 0,0 0.48279,-0.388694 0.0846,-1.074441 L 82.832816,61.30953 Z m -10.198142,9.948311 0.625338,14.453334 6.569789,6.444621 c 0.663629,0.663629 1.376346,-0.06257 1.376346,-0.06257 l 5.068277,-7.258208 z m 24.275979,5.631035 -8.634051,8.634554 1.438925,2.31509 9.510227,-9.447638 z m 0.530216,6.565282 c -0.754505,0.005 -1.435359,0.206076 -1.96914,0.692924 -2.627847,2.471425 2.440266,8.759219 2.440266,8.759219 6.97628,8.258913 18.01912,11.512403 18.01912,11.512403 0,0 -3.847631,-10.730304 -10.573661,-17.331183 0,0 -4.647085,-3.655307 -7.916585,-3.633363 z" />
  <path style="display:inline;fill:#ffffff;stroke-width:0.256343"
    d="m 82.926717,85.147863 c 1.204422,-1.032365 3.910474,1.532911 3.910474,1.532911 3.691494,3.269162 5.193123,7.570686 5.193123,7.570686 0,0 -3.660209,-0.860315 -7.914811,-5.662378 0,0 -2.236797,-2.361924 -1.188786,-3.441219 z" />
</svg>