<?xml version="1.0" encoding="UTF-8" standalone="no"?>
<svg version="1.0" width="22.756109pt" height="44.999969pt" viewBox="0 0 22.756109 44.999969"
   preserveAspectRatio="xMidYMid" id="svg15032" xmlns="http://www.w3.org/2000/svg"
   xmlns:svg="http://www.w3.org/2000/svg">
   <path
      d="M 12.698453,0.23013524 C 12.633513,0.35773498 9.7488479,5.9311093 6.2899836,12.617563 L 0,24.773717 l 5.6907205,0.0034 c 3.1296115,0.0011 5.6907205,0.0057 5.6907205,0.0091 0,0.0068 -2.8732727,6.275173 -7.4315455,16.21656 -0.988898,2.158942 -1.8069035,3.94306 -1.8160177,3.964706 -0.017089,0.03988 -0.017089,0.03988 0.0057,0.01709 0.011393,-0.01253 0.3622921,-0.453434 0.7781305,-0.979783 0.4158385,-0.526349 0.9866195,-1.249794 1.2691617,-1.60639 0.4853348,-0.614074 7.898652,-9.985819 8.533233,-10.789014 0.164057,-0.207349 1.948175,-2.46313 3.964706,-5.012846 2.016532,-2.550856 3.782421,-4.782712 3.923692,-4.96158 0.141271,-0.178867 0.686988,-0.868133 1.212198,-1.532336 0.792941,-1.002569 0.951301,-1.208779 0.934212,-1.215615 -0.01139,-0.0034 -2.89378,-0.25406 -6.40619,-0.55597 -3.512411,-0.30191 -6.3868235,-0.550274 -6.3879628,-0.551414 -0.00228,-0.0011 0.1708928,-1.081179 0.3839388,-2.40047 0.211907,-1.31815 0.786106,-4.88069 1.275998,-7.9168798 C 12.110582,4.4261159 12.581106,1.5049933 12.667692,0.97066944 12.753138,0.43748482 12.822634,0 12.821495,0 c -0.0023,0 -0.05696,0.10367479 -0.123042,0.23013524 z"
      id="path15028" style="fill:#f6f303;" />
</svg>