<?xml version="1.0" encoding="UTF-8" standalone="no"?>
<svg width="36" height="36" viewBox="0 0 36 36" id="close" version="1.1" xmlns="http://www.w3.org/2000/svg"
   xmlns:svg="http://www.w3.org/2000/svg">
   <path
      d="M 35.008982,30.23897 22.770012,18 35.008982,5.7610312 c 1.321357,-1.3213591 1.321357,-3.4486529 0,-4.77001194 -1.321359,-1.32135901 -3.448653,-1.32135901 -4.770012,0 L 18,13.229988 5.7610312,0.99101926 c -1.3213591,-1.32135901 -3.4486529,-1.32135901 -4.77001194,0 -1.32135901,1.32135904 -1.32135901,3.44865304 0,4.77001194 L 13.229988,18 0.99101926,30.23897 c -1.32135901,1.321359 -1.32135901,3.448653 0,4.770012 1.32135904,1.321357 3.44865304,1.321357 4.77001194,0 L 18,22.770012 30.23897,35.008982 c 1.321359,1.321357 3.448653,1.321357 4.770012,0 1.311988,-1.321359 1.311988,-3.458025 0,-4.770012 z"
      id="path1" style="stroke-width:0.0937132" />
</svg>