<?xml version="1.0" encoding="UTF-8" standalone="no"?>
<svg
   viewBox="0 0 24 24"
   version="1.1"
   id="svg4"
   width="24"
   height="24"
   xmlns="http://www.w3.org/2000/svg"
   xmlns:svg="http://www.w3.org/2000/svg">
  <defs
     id="defs4" />
  <g
     transform="matrix(0.846143,0,0,0.87444436,0.0016923,-0.3987466)"
     id="g4">
    <path
       d="m 28.36,19.595 c 0,-0.868 -0.665,-1.57 -1.491,-1.57 -0.819,0.002 -1.492,0.702 -1.492,1.57 v 3.25 l -6.02,-6.02 c -0.582,-0.583 -1.524,-0.583 -2.106,0 -0.582,0.582 -0.582,1.527 0,2.109 l 5.989,5.987 h -3.235 c -0.881,0.002 -1.591,0.669 -1.591,1.491 0,0.824 0.71,1.49 1.591,1.49 h 6.761 c 0.881,0 1.59,-0.665 1.593,-1.49 -0.003,-0.022 -0.006,-0.039 -0.009,-0.061 0.003,-0.028 0.009,-0.058 0.009,-0.087 v -6.668 h -1e-4"
       id="path1" />
    <path
       d="m 9,16.824 -6.01,6.02 v -3.25 c 0,-0.868 -0.672,-1.568 -1.493,-1.57 -0.824,0 -1.49,0.702 -1.49,1.57 l -0.002,6.669 c 0,0.029 0.008,0.059 0.001,0.087 C 0.004,26.371 0,26.388 -0.002,26.411 0,27.236 0.71,27.901 1.59,27.901 h 6.762 c 0.879,0 1.59,-0.666 1.59,-1.49 0,-0.822 -0.711,-1.489 -1.59,-1.491 H 5.117 l 5.989,-5.987 c 0.58,-0.582 0.58,-1.527 0,-2.109 -0.583,-0.584 -1.526,-0.584 -2.11,-1e-4"
       id="path2" />
    <path
       d="m 19.359,11.535 6.02,-6.02 v 3.25 c 0,0.865 0.673,1.565 1.492,1.568 0.826,0 1.491,-0.703 1.491,-1.568 V 2.094 C 28.362,2.065 28.356,2.035 28.353,2.009 28.356,1.988 28.359,1.968 28.362,1.947 28.359,1.121 27.65,0.456 26.77,0.456 h -6.761 c -0.881,0 -1.591,0.665 -1.591,1.491 0,0.821 0.71,1.49 1.591,1.492 h 3.235 l -5.989,5.987 c -0.582,0.581 -0.582,1.524 0,2.105 0.582,0.586 1.524,0.586 2.106,10e-5"
       id="path3" />
    <path
       d="M 5.121,3.442 H 8.355 C 9.234,3.44 9.945,2.771 9.945,1.95 9.945,1.124 9.234,0.459 8.355,0.459 H 1.594 C 0.714,0.459 0.004,1.124 0.002,1.95 0.004,1.971 0.008,1.991 0.01,2.012 0.008,2.038 0.009,2.067 0.009,2.097 l 0.002,6.672 c 0,0.865 0.666,1.568 1.49,1.568 0.821,-0.003 1.493,-0.703 1.493,-1.568 v -3.25 l 6.01,6.02 c 0.584,0.585 1.527,0.585 2.11,0 0.58,-0.581 0.58,-1.524 0,-2.105 L 5.125,3.446"
       id="path4" />
  </g>
</svg>
