<?xml version="1.0" encoding="UTF-8" standalone="no"?>
<svg version="1.0" width="57.813225" height="45" viewBox="0 0 57.813225 45" preserveAspectRatio="xMidYMid" id="svg1"
   xmlns="http://www.w3.org/2000/svg" xmlns:svg="http://www.w3.org/2000/svg">
   <path id="path23985" style="fill:#f6f303;"
      d="M 27.261137,0.00261916 C 26.797963,0.00703928 26.492087,0.01724409 26.472799,0.03438879 26.455653,0.05153349 26.035491,0.0943116 25.538295,0.12002865 21.775033,0.36862678 17.077456,1.5430668 13.108459,3.2318197 8.6594089,5.1263089 4.3045681,7.9809176 1.2013776,11.041246 c -0.70293267,0.69436 -0.87438069,0.91726 -1.02868299,1.345878 -0.51434097,1.371576 0.15439594,2.974575 1.55168889,3.737515 0.5057686,0.274314 0.5914768,0.291452 1.3544158,0.291452 0.737222,0 0.8572112,-0.02563 1.2601116,-0.248507 C 4.5875091,16.030425 5.1275264,15.610296 5.5389992,15.224541 8.9250774,12.104205 12.705587,9.7639469 16.991761,8.1523449 18.29476,7.663721 20.197757,7.0894059 21.252157,6.8579524 24.441071,6.1635921 25.53834,6.0521925 28.967279,6.0436203 c 2.648857,0 3.103196,0.017128 4.371902,0.1971474 2.597423,0.368611 4.457672,0.8143163 6.900791,1.6544065 4.389043,1.5001612 8.658119,4.0461228 12.078487,7.2093208 1.174412,1.080114 1.61157,1.303022 2.580245,1.311596 0.608637,0 0.754343,-0.03432 1.260112,-0.282914 0.608637,-0.300032 1.208652,-0.882945 1.49154,-1.44872 0.128587,-0.265742 0.162867,-0.514241 0.162867,-1.31147 0,-1.234419 -0.05999,-1.363116 -1.097246,-2.383225 C 53.904247,8.2294654 49.909505,5.5206459 45.983368,3.7118801 41.662904,1.7230951 36.973856,0.48864802 32.181913,0.0857476 31.455407,0.02788424 28.650661,-0.01064119 27.261137,0.00261916 Z M 27.861369,11.021155 c -0.47456,0.0072 -0.885062,0.02226 -1.165806,0.04583 -6.746439,0.565775 -13.381389,3.531824 -18.0190309,8.066598 -0.9515304,0.925813 -1.0972448,1.243017 -1.0972448,2.340278 0,0.762939 0.025692,0.900098 0.2314287,1.285854 0.3086045,0.574348 0.9172932,1.191449 1.4659232,1.474337 0.3428944,0.171447 0.6086134,0.231545 1.1315268,0.265835 1.037254,0.05144 1.448704,-0.137192 2.545965,-1.14873 1.054398,-0.977248 2.545974,-2.117406 3.668953,-2.820338 1.920207,-1.191558 4.509104,-2.29731 6.515033,-2.785934 0.4029,-0.09429 0.865808,-0.214309 1.028684,-0.25717 0.162875,-0.04287 0.857236,-0.162934 1.543024,-0.274375 1.774476,-0.274315 4.714774,-0.274315 6.532112,0 4.809088,0.737223 9.112446,2.785996 12.627108,6.017771 1.122979,1.028682 1.560087,1.243034 2.528762,1.243034 0.61721,0 0.79728,-0.03436 1.208753,-0.240093 0.540059,-0.257171 1.251632,-0.960055 1.525947,-1.49154 0.394329,-0.780084 0.368561,-1.920209 -0.05148,-2.700293 -0.428622,-0.788656 -2.906087,-2.897434 -4.937732,-4.217576 -4.003288,-2.58885 -8.28092,-4.131927 -13.047147,-4.680557 -0.810087,-0.09644 -2.811099,-0.144634 -4.234779,-0.122935 z m 1.201344,11.024814 c -0.858306,-0.0064 -1.719853,0.0065 -2.067034,0.04508 -0.882952,0.09429 -2.75172,0.514292 -3.763256,0.848615 -2.708863,0.908668 -5.109203,2.348895 -7.020838,4.226239 -1.011537,0.994393 -1.17438,1.32011 -1.165806,2.323076 0.0085,0.591492 0.05144,0.822904 0.222889,1.200088 0.454335,0.98582 1.328741,1.688796 2.340279,1.88596 0.437189,0.08572 0.608629,0.0772 1.062964,-0.04281 0.668642,-0.171446 1.088657,-0.42866 1.808734,-1.114448 2.323106,-2.203094 5.28061,-3.38604 8.478095,-3.38604 3.3175,0 6.18922,1.165735 8.718064,3.531704 0.857235,0.797228 1.251515,0.968784 2.263052,0.968784 0.900096,0 1.371611,-0.205804 2.048827,-0.88302 0.660072,-0.668642 0.908636,-1.242966 0.908636,-2.160208 0,-1.011537 -0.23137,-1.465942 -1.242907,-2.426044 -2.828876,-2.70029 -6.592148,-4.457518 -10.544001,-4.946142 -0.334322,-0.03857 -1.189391,-0.06439 -2.047698,-0.07083 z m -0.486088,10.203702 c -0.506705,0.0044 -0.7688,0.05099 -1.238136,0.179568 -1.157266,0.317177 -2.074485,0.865884 -2.931721,1.748836 -1.937351,2.00593 -2.365944,4.757636 -1.131525,7.303624 0.342893,0.702933 0.514366,0.925865 1.183009,1.594508 0.882952,0.87438 1.585855,1.320153 2.580247,1.637329 0.831517,0.265743 2.211736,0.368528 3.06897,0.214225 2.065938,-0.360038 4.028926,-1.997285 4.8433,-4.037505 0.91724,-2.314535 0.334303,-4.997728 -1.474462,-6.772204 -0.668644,-0.660072 -1.568743,-1.225815 -2.443123,-1.551564 -0.660071,-0.248597 -0.848589,-0.274365 -1.851553,-0.308655 -0.240027,-0.0064 -0.436103,-0.0096 -0.605006,-0.0081 z" />
</svg>