<?xml version="1.0" encoding="UTF-8" standalone="no"?>
<svg fill="#000000" height="60" width="60" version="1.1" id="Capa_1" viewBox="0 0 15.2667 15.2667" xml:space="preserve"
   xmlns="http://www.w3.org/2000/svg" xmlns:svg="http://www.w3.org/2000/svg">
   <path id="path2"
      d="M 4.5711987,0 C 4.4272544,0 4.2833399,0.0549063 4.1735395,0.16470673 L 1.4109839,2.9272624 c -0.2196759,0.2197508 -0.2196759,0.5758661 0,0.795542 L 4.6983349,7.0101181 3.8393551,7.8690233 C 3.7338298,7.9745488 3.6745739,8.1175812 3.6745739,8.2668312 c 0,0.1492507 0.059256,0.2922082 0.1647812,0.3978087 l 2.7627793,2.7627041 c 0.1098004,0.109801 0.2538082,0.164707 0.3977338,0.164707 0.1439255,0 0.2879333,-0.05491 0.3977338,-0.164707 l 0.8589797,-0.858979 3.2872393,3.287276 c 0.109875,0.1098 0.253808,0.164707 0.397733,0.164707 0.143926,0 0.287934,-0.05491 0.397734,-0.164707 l 2.76263,-2.762555 c 0.105526,-0.105526 0.164782,-0.248558 0.164782,-0.397809 7.5e-5,-0.149175 -0.05918,-0.292208 -0.164707,-0.397734 l -3.287351,-3.2873504 0.85898,-0.8589051 c 0.105525,-0.1055254 0.164781,-0.2485204 0.164781,-0.397771 0,-0.1491756 -0.05926,-0.292208 -0.164781,-0.3978083 L 9.9109915,2.5931525 c -0.2196761,-0.2196008 -0.5757546,-0.2196008 -0.7954299,0 L 8.2566559,3.4520577 4.969007,0.16470673 C 4.8591316,0.0549063 4.715143,0 4.5711987,0 Z M 4.5712733,1.3580198 7.4610396,4.2474879 6.1735764,5.5349511 5.4938396,6.2146878 2.6042224,3.3250706 Z M 9.5131835,3.7864656 11.480383,5.753591 10.621925,6.6120489 10.621403,6.6125707 9.2401259,7.9939229 6.9998682,10.234106 5.0325937,8.2669062 5.8912007,7.4083737 5.8915734,7.4080009 6.8247997,6.4747747 Z m 1.5061025,4.0192694 2.889543,2.889542 -1.9672,1.967125 L 9.0520865,9.7729345 Z M 0.56251503,9.2783671 C 0.25178883,9.2783671 0,9.5302311 0,9.8408819 0,11.290187 0.56445428,12.652712 1.5891833,13.677517 2.6139122,14.702321 3.9763633,15.2667 5.4255939,15.2667 h 2.982e-4 c 0.3106512,0 0.5624405,-0.251864 0.5624405,-0.562515 7.5e-5,-0.310726 -0.2518639,-0.562478 -0.5625151,-0.562478 -1.1487794,7.5e-5 -2.2287641,-0.44733 -3.0410922,-1.259658 -0.8123281,-0.812328 -1.2597325,-1.892387 -1.2597325,-3.0411671 0,-0.3107258 -0.25182655,-0.5625148 -0.56247777,-0.5625148 z M 2.7692274,9.503381 c -0.3106512,0 -0.5624778,0.2518264 -0.5624778,0.562477 -7.5e-5,0.799728 0.311405,1.551607 0.8769823,2.117185 0.5655021,0.565577 1.3174554,0.876982 2.1172585,0.876982 0.3106513,0 0.5624778,-0.251752 0.5624778,-0.562478 0,-0.310726 -0.2518265,-0.562515 -0.5624778,-0.562515 -0.4993519,0 -0.9687269,-0.194468 -1.3218283,-0.547494 -0.3530263,-0.353027 -0.5474197,-0.822402 -0.5474197,-1.32168 0,-0.3106506 -0.2517888,-0.562477 -0.562515,-0.562477 z"
      style="fill:#f6f303;" />&#10;&#10;
</svg>