<?xml version="1.0" encoding="UTF-8" standalone="no"?>
<svg
   version="1.0"
   width="674.41467pt"
   height="524.9433pt"
   viewBox="0 0 674.41467 524.9433"
   preserveAspectRatio="xMidYMid"
   id="svg23995"
   sodipodi:docname="conn-mid.svg"
   inkscape:version="1.2.2 (732a01da63, 2022-12-09)"
   xmlns:inkscape="http://www.inkscape.org/namespaces/inkscape"
   xmlns:sodipodi="http://sodipodi.sourceforge.net/DTD/sodipodi-0.dtd"
   xmlns="http://www.w3.org/2000/svg"
   xmlns:svg="http://www.w3.org/2000/svg">
  <defs
     id="defs23999" />
  <sodipodi:namedview
     id="namedview23997"
     pagecolor="#ffffff"
     bordercolor="#000000"
     borderopacity="0.25"
     inkscape:showpageshadow="2"
     inkscape:pageopacity="0.0"
     inkscape:pagecheckerboard="0"
     inkscape:deskcolor="#d1d1d1"
     inkscape:document-units="pt"
     showgrid="false"
     inkscape:zoom="0.69532167"
     inkscape:cx="475.31958"
     inkscape:cy="240.17661"
     inkscape:window-width="2560"
     inkscape:window-height="1494"
     inkscape:window-x="-11"
     inkscape:window-y="-11"
     inkscape:window-maximized="1"
     inkscape:current-layer="svg23995" />
  <metadata
     id="metadata23983">
Created by potrace 1.15, written by Peter Selinger 2001-2017
</metadata>
  <path
     id="path23985"
     style="fill:#f6f303;stroke:none;stroke-width:0.1;fill-opacity:1"
     d="M 318.01172 0.030761719 C 312.6086 0.082324167 309.04043 0.20136739 308.81543 0.40136719 C 308.61543 0.60136699 303.71406 1.1003909 297.91406 1.4003906 C 254.01411 4.3003877 199.21499 18.000703 152.91504 37.700684 C 101.01509 59.800661 50.214124 93.100817 14.01416 128.80078 C 5.8141684 136.90077 3.8141584 139.50098 2.0141602 144.50098 C -3.9858338 160.50096 3.8152507 179.20059 20.115234 188.10059 C 26.015228 191.30058 27.015048 191.50049 35.915039 191.50049 C 44.51503 191.50049 45.914751 191.20156 50.614746 188.60156 C 53.514743 187.00156 59.814263 182.10058 64.614258 177.60059 C 104.11422 141.20062 148.21538 113.90057 198.21533 95.100586 C 213.41532 89.400592 235.61456 82.700974 247.91455 80.000977 C 285.11451 71.900985 297.91459 70.601465 337.91455 70.501465 C 368.81452 70.501465 374.11457 70.701272 388.91455 72.80127 C 419.21452 77.101265 440.91507 82.300596 469.41504 92.100586 C 520.61499 109.60057 570.41547 139.30023 610.31543 176.2002 C 624.01542 188.80018 629.11505 191.40049 640.41504 191.50049 C 647.51503 191.50049 649.21475 191.10019 655.11475 188.2002 C 662.21474 184.7002 669.21416 177.90029 672.51416 171.30029 C 674.01416 168.2003 674.41406 165.30146 674.41406 156.00146 C 674.41406 141.60148 673.71425 140.10018 661.61426 128.2002 C 628.81429 96.000228 582.21402 64.40076 536.41406 43.300781 C 486.01411 20.100804 431.31449 5.7004836 375.41455 1.0004883 C 366.93956 0.32548896 334.22108 -0.12392563 318.01172 0.030761719 z M 325.01367 128.56641 C 319.47774 128.65078 314.68906 128.82607 311.41406 129.10107 C 232.71414 135.70107 155.31479 170.30122 101.21484 223.20117 C 90.114855 234.00116 88.415039 237.70148 88.415039 250.50146 C 88.415039 259.40146 88.714748 261.00147 91.114746 265.50146 C 94.714742 272.20146 101.81534 279.4002 108.21533 282.7002 C 112.21533 284.70019 115.31505 285.40127 121.41504 285.80127 C 133.51503 286.40127 138.31476 284.20087 151.11475 272.40088 C 163.41473 261.00089 180.81456 247.70048 193.91455 239.50049 C 216.31453 225.6005 246.51506 212.70146 269.91504 207.00146 C 274.61503 205.90147 280.01504 204.50146 281.91504 204.00146 C 283.81504 203.50147 291.91505 202.10078 299.91504 200.80078 C 320.61502 197.60078 354.91477 197.60078 376.11475 200.80078 C 432.21469 209.40077 482.41508 233.30053 523.41504 271.00049 C 536.51503 283.00048 541.61407 285.50098 552.91406 285.50098 C 560.11406 285.50098 562.21465 285.10019 567.01465 282.7002 C 573.31464 279.7002 581.61543 271.50078 584.81543 265.30078 C 589.41543 256.20079 589.11484 242.90077 584.21484 233.80078 C 579.21485 224.60079 550.31423 200.00106 526.61426 184.60107 C 479.9143 154.4011 430.01401 136.40048 374.41406 130.00049 C 364.96407 128.87549 341.62147 128.31328 325.01367 128.56641 z M 339.02783 257.17529 C 329.01534 257.10029 318.96504 257.25117 314.91504 257.70117 C 304.61505 258.80117 282.81512 263.70059 271.01514 267.60059 C 239.41517 278.20058 211.41424 295.00139 189.11426 316.90137 C 177.31427 328.50136 175.41465 332.30099 175.51465 344.00098 C 175.61465 350.90097 176.11475 353.60049 178.11475 358.00049 C 183.41474 369.50048 193.61505 377.70098 205.41504 380.00098 C 210.51503 381.00098 212.51495 380.90146 217.81494 379.50146 C 225.61493 377.50147 230.51456 374.50097 238.91455 366.50098 C 266.01452 340.801 300.51498 327.00146 337.81494 327.00146 C 376.5149 327.00146 410.01468 340.60022 439.51465 368.2002 C 449.51464 377.50019 454.11407 379.50146 465.91406 379.50146 C 476.41405 379.50146 481.91446 377.10068 489.81445 369.20068 C 497.51445 361.40069 500.41406 354.70097 500.41406 344.00098 C 500.41406 332.20099 497.71503 326.90018 485.91504 315.7002 C 452.91507 284.20023 409.01499 263.70146 362.91504 258.00146 C 359.01504 257.55147 349.04032 257.25029 339.02783 257.17529 z M 333.35742 376.20557 C 327.44649 376.25713 324.38906 376.80029 318.91406 378.30029 C 305.41408 382.00029 294.71435 388.40118 284.71436 398.70117 C 262.11438 422.10115 257.11466 454.20091 271.51465 483.90088 C 275.51464 492.10087 277.51495 494.70147 285.31494 502.50146 C 295.61493 512.70145 303.81456 517.90157 315.41455 521.60156 C 325.11454 524.70156 341.21534 525.90058 351.21533 524.10059 C 375.31531 519.90059 398.21436 500.80144 407.71436 477.00146 C 418.41434 450.00149 411.61414 418.70096 390.51416 398.00098 C 382.71417 390.30098 372.21415 383.70136 362.01416 379.90137 C 354.31417 377.00137 352.11503 376.70078 340.41504 376.30078 C 337.61504 376.22578 335.32773 376.18838 333.35742 376.20557 z " />
</svg>
