<?xml version="1.0" encoding="UTF-8" standalone="no"?>
<svg
   version="1.0"
   width="1997.4053pt"
   height="3949.8513pt"
   viewBox="0 0 1997.4053 3949.8513"
   preserveAspectRatio="xMidYMid"
   id="svg15032"
   sodipodi:docname="igniter-bad.svg"
   inkscape:version="1.2.2 (732a01da63, 2022-12-09)"
   xmlns:inkscape="http://www.inkscape.org/namespaces/inkscape"
   xmlns:sodipodi="http://sodipodi.sourceforge.net/DTD/sodipodi-0.dtd"
   xmlns="http://www.w3.org/2000/svg"
   xmlns:svg="http://www.w3.org/2000/svg">
  <defs
     id="defs15036" />
  <sodipodi:namedview
     id="namedview15034"
     pagecolor="#ffffff"
     bordercolor="#000000"
     borderopacity="0.25"
     inkscape:showpageshadow="2"
     inkscape:pageopacity="0.0"
     inkscape:pagecheckerboard="0"
     inkscape:deskcolor="#d1d1d1"
     inkscape:document-units="pt"
     showgrid="false"
     inkscape:zoom="0.1416"
     inkscape:cx="928.67232"
     inkscape:cy="3199.1525"
     inkscape:window-width="2560"
     inkscape:window-height="1494"
     inkscape:window-x="-11"
     inkscape:window-y="-11"
     inkscape:window-maximized="1"
     inkscape:current-layer="svg15032" />
  <path
     d="M 1114.6,20.2 C 1108.9,31.4 855.7,520.6 552.1,1107.5 L 0,2174.5 l 499.5,0.3 c 274.7,0.1 499.5,0.5 499.5,0.8 0,0.6 -252.2,550.8 -652.3,1423.4 -86.8,189.5 -158.6,346.1 -159.4,348 -1.5,3.5 -1.5,3.5 0.5,1.5 1,-1.1 31.8,-39.8 68.3,-86 36.5,-46.2 86.6,-109.7 111.4,-141 42.6,-53.9 693.3,-876.5 749,-947 14.4,-18.2 171,-216.2 348,-440 177,-223.9 332,-419.8 344.4,-435.5 12.4,-15.7 60.3,-76.2 106.4,-134.5 69.6,-88 83.5,-106.1 82,-106.7 -1,-0.3 -254,-22.3 -562.3,-48.8 -308.3,-26.5 -560.6,-48.3 -560.7,-48.4 -0.2,-0.1 15,-94.9 33.7,-210.7 18.6,-115.7 69,-428.4 112,-694.9 43,-266.5 84.3,-522.9 91.9,-569.8 7.5,-46.8 13.6,-85.2 13.5,-85.2 -0.2,0 -5,9.1 -10.8,20.2 z"
     id="path15028"
     style="fill:#e10303;stroke:none;stroke-width:0.1;fill-opacity:1" />
</svg>
