<?xml version="1.0" encoding="UTF-8" standalone="no"?>
<!-- Uploaded to: SVG Repo, www.svgrepo.com, Generator: SVG Repo Mixer Tools -->

<svg
   fill="#000000"
   height="800px"
   width="800px"
   version="1.1"
   id="Capa_1"
   viewBox="0 0 203.556 203.556"
   xml:space="preserve"
   sodipodi:docname="gps-bad.svg"
   inkscape:version="1.2.2 (732a01da63, 2022-12-09)"
   xmlns:inkscape="http://www.inkscape.org/namespaces/inkscape"
   xmlns:sodipodi="http://sodipodi.sourceforge.net/DTD/sodipodi-0.dtd"
   xmlns="http://www.w3.org/2000/svg"
   xmlns:svg="http://www.w3.org/2000/svg"><defs
   id="defs13">
	
	
	
</defs><sodipodi:namedview
   id="namedview11"
   pagecolor="#ffffff"
   bordercolor="#000000"
   borderopacity="0.25"
   inkscape:showpageshadow="2"
   inkscape:pageopacity="0.0"
   inkscape:pagecheckerboard="0"
   inkscape:deskcolor="#d1d1d1"
   showgrid="false"
   inkscape:zoom="1.18"
   inkscape:cx="330.08475"
   inkscape:cy="433.89831"
   inkscape:window-width="2560"
   inkscape:window-height="1494"
   inkscape:window-x="-11"
   inkscape:window-y="-11"
   inkscape:window-maximized="1"
   inkscape:current-layer="Capa_1" />
<path
   id="path2"
   d="M 60.94902 0 C 59.029772 0 57.110921 0.73208048 55.646923 2.196079 L 18.813027 39.029975 C 15.88403 41.959972 15.88403 46.708153 18.813027 49.63715 L 62.64416 93.467787 L 51.191153 104.9198 C 49.784155 106.3268 48.99408 108.23389 48.99408 110.22388 C 48.99408 112.21388 49.784155 114.11997 51.191153 115.52797 L 88.028031 152.36385 C 89.492029 153.82785 91.412124 154.55993 93.331122 154.55993 C 95.25012 154.55993 97.170214 153.82785 98.634213 152.36385 L 110.08722 140.91085 L 153.91686 184.74098 C 155.38186 186.20498 157.30095 186.93706 159.21995 186.93706 C 161.13895 186.93706 163.05905 186.20498 164.52304 184.74098 L 201.35793 147.90709 C 202.76493 146.50009 203.55501 144.593 203.55501 142.603 C 203.55601 140.61401 202.76593 138.70691 201.35893 137.29991 L 157.52779 93.46878 L 168.9808 82.016768 C 170.3878 80.609769 171.17787 78.703178 171.17787 76.71318 C 171.17787 74.724182 170.3878 72.817093 168.9808 71.409095 L 132.14591 34.575199 C 129.21691 31.647202 124.46922 31.647202 121.54023 34.575199 L 110.08821 46.027212 L 66.253105 2.196079 C 64.788106 0.73208048 62.868268 0 60.94902 0 z M 60.950014 18.106843 L 99.480044 56.632897 L 82.313951 73.798989 L 73.250839 82.862101 L 34.722797 44.334059 L 60.950014 18.106843 z M 126.84183 50.485963 L 153.07103 76.714174 L 141.62498 88.160223 L 141.61802 88.16718 L 123.20108 106.58512 L 93.331122 136.45408 L 67.100923 110.22488 L 78.548961 98.777835 L 78.55393 98.772865 L 90.996887 86.329909 L 126.84183 50.485963 z M 146.9231 104.07596 L 185.45015 142.603 L 159.22095 168.83121 L 120.6939 130.30516 L 146.9231 104.07596 z M 7.5001639 123.71096 C 3.3571681 123.71096 0 127.06913 0 131.21112 C 0 150.5351 7.5260204 168.70201 21.189007 182.366 C 34.851993 196.02999 53.017919 203.55501 72.3409 203.55501 L 72.344876 203.55501 C 76.486872 203.55501 79.844046 200.19684 79.844046 196.05484 C 79.845046 191.91185 76.485878 188.55518 72.343882 188.55518 C 57.026897 188.55618 42.627172 182.59081 31.796183 171.75982 C 20.965194 160.92883 14.999831 146.52811 14.999831 131.21112 C 14.999831 127.06813 11.64216 123.71096 7.5001639 123.71096 z M 36.922852 126.71113 C 32.780856 126.71113 29.423185 130.0688 29.423185 134.21079 C 29.422185 144.87378 33.575232 154.89878 41.116225 162.43978 C 48.656217 169.98077 58.682212 174.13282 69.346202 174.13282 C 73.488198 174.13282 76.845869 170.77614 76.845869 166.63315 C 76.845869 162.49015 73.488198 159.13298 69.346202 159.13298 C 62.688208 159.13298 56.429905 156.54009 51.72191 151.8331 C 47.014915 147.1261 44.423016 140.86779 44.423016 134.21079 C 44.423016 130.0688 41.065848 126.71113 36.922852 126.71113 z "
   style="fill:#e10303;fill-opacity:1" />
</svg>
